<svg
  width="447"
  height="93"
  viewBox="0 0 447 93"
  fill="none"
  xmlns="http://www.w3.org/2000/svg"
>
  <path
    d="M33.4327 59.9854C33.4327 52.7362 36.417 46.1742 41.2154 41.45C38.6296 40.2631 35.7636 39.5843 32.7295 39.5843C21.4618 39.5843 12.3275 48.7186 12.3275 59.9854C12.3275 71.2531 21.4618 80.3874 32.7295 80.3874C35.7636 80.3874 38.6288 79.7087 41.2154 78.5217C36.417 73.7975 33.4327 67.2355 33.4327 59.9854Z"
    fill="#0F172A"
  />
  <path
    d="M59.4586 59.2957C52.2094 59.2957 45.6474 56.3114 40.9232 51.5104C39.7362 54.0987 39.0575 56.9648 39.0575 59.9989C39.0575 71.2665 48.1918 80.4009 59.4586 80.4009C70.7262 80.4009 79.8606 71.2665 79.8606 59.9989C79.8606 56.9648 79.1818 54.0996 77.9949 51.5104C73.2707 56.3114 66.7087 59.2957 59.4586 59.2957Z"
    fill="#0F172A"
  />
  <path
    d="M59.4719 12.8508C56.4378 12.8508 53.5726 13.5296 50.9834 14.7165C55.7844 19.4407 58.7687 26.0027 58.7687 33.2528C58.7687 40.502 55.7844 47.064 50.9834 51.7882C53.5717 52.9752 56.4378 53.6539 59.4719 53.6539C70.7395 53.6539 79.8739 44.5196 79.8739 33.2528C79.8739 21.9852 70.7395 12.8508 59.4719 12.8508Z"
    fill="#0F172A"
  />
  <path
    d="M32.7259 33.956C39.9751 33.956 46.5372 36.9403 51.2613 41.7388C52.4483 39.153 53.127 36.2869 53.127 33.2528C53.127 21.9852 43.9927 12.8508 32.7259 12.8508C21.4583 12.8508 12.324 21.9852 12.324 33.2528C12.324 36.2869 13.0027 39.1521 14.1897 41.7388C18.9139 36.9403 25.4759 33.956 32.7259 33.956Z"
    fill="#0F172A"
  />
  <path
    d="M120.319 40.0592C118.992 45.5111 114.409 49.4672 109.078 50.987C107.389 51.4212 105.29 51.5901 102.733 51.5901H87.8739L91.4924 35.8623H88.7423L93.4463 15.5992C97.6196 15.5992 110.284 14.8032 114.554 16.3712C118.173 17.7944 119.885 20.7857 118.993 24.6937C118.317 27.6126 116.556 29.8801 114.192 31.6411C116.171 32.6301 117.328 34.1257 117.714 35.8627H120.368C120.682 37.2136 120.609 38.5153 120.319 40.0592ZM107.968 39.9144C108.74 36.5614 105.435 37.2127 103.264 37.2127L101.961 42.7851C104.639 42.7851 107.269 43.0987 107.968 39.9144ZM106.521 26.888C107.075 24.6445 105.218 24.3791 103.457 24.3791L102.54 28.7454C103.891 28.866 106.159 28.6731 106.521 26.888ZM121.875 35.9585H119.414L124.142 15.5991H149.978L147.903 24.7417H134.13L133.406 27.8295H146.071L144.213 35.9589H146.674L146.457 36.9238H133.768L132.49 42.5686H146.215L144.141 51.6871H118.257L121.875 35.9585ZM177.298 35.1866C178.697 40.2525 174.499 46.2349 170.615 48.8641C162.992 53.8576 152.934 53.0615 145.141 49.0571L147.409 39.0219H151.148C151.63 44.2083 163.234 46.3553 164.415 41.2412C164.994 38.7083 155.9 38.0087 152.86 35.6206C152.692 35.4758 152.499 35.3311 152.354 35.1863H150.135C147.722 32.9188 147.505 29.9034 148.205 26.7674C151.148 13.91 168.612 12.6317 178.697 17.7213L176.453 27.4912H172.69C172.931 23.8244 161.835 21.3157 160.798 25.7302C160.098 29.1556 171.339 28.1424 174.452 33.5702C174.717 34.0527 174.934 34.6316 175.079 35.1865L177.298 35.1866ZM199.045 35.1866L195.378 51.6863H183.148L186.911 35.1866H184.716L187.152 24.6207H177.503L179.626 15.4781H210.938L208.888 24.6207H199.262L196.898 35.1866H199.045ZM216.45 35.8622H219.2C218.765 41.6758 222.722 46.0421 233.866 38.8776H237.485L235.217 48.7198C222.987 55.7638 204.846 53.641 207.5 35.8624H204.775C204.919 35.2111 205.064 34.4392 205.257 33.5949C207.718 22.8119 215.944 14.9721 227.402 14.9721C233.723 14.9721 237.365 16.7812 239.536 18.277L237.196 28.3604H233.313C224.58 18.9524 217.029 28.5534 216.451 35.8627L216.45 35.8622ZM265.334 35.1866L256.071 51.6863H244.42L242.707 35.1866H240.488L238.413 15.4781H251.03L252.501 32.8708C255.758 27.1536 258.701 21.171 261.933 15.4781H274.236L263.163 35.1866H265.334Z"
    fill="#0F172A"
  />
  <path
    d="M103.006 70.0178C103.664 72.4016 101.689 75.2168 99.8617 76.4541C96.2746 78.8039 91.541 78.4292 87.8739 76.5449L88.9409 71.8227H90.7005C90.9275 74.2632 96.3876 75.2736 96.9438 72.867C97.2162 71.6751 92.9367 71.3459 91.5065 70.2221C91.427 70.154 91.3362 70.0859 91.2681 70.0178H90.2237C89.0886 68.9507 88.9864 67.5318 89.3156 66.0561C90.7005 60.0057 98.919 59.4041 103.664 61.7993L102.609 66.3967H100.838C100.951 64.6712 95.7296 63.4907 95.2414 65.568C94.9122 67.1799 100.202 66.7032 101.666 69.2572C101.791 69.4843 101.893 69.7567 101.961 70.0178L103.006 70.0178ZM111.446 70.381L109.743 77.7822H103.999L105.702 70.381H104.544L106.769 60.8004H112.501L110.299 70.381H111.446ZM132.769 70.3356L131.044 77.7254H125.368L126.855 71.4253C126.276 72.2994 125.697 73.1621 125.164 74.0362H121.156L120.668 71.4027L119.181 77.7255H113.744L115.424 70.3357H114.402L116.593 60.8232H122.621L123.858 66.8735C125.186 64.8756 126.514 62.8551 127.877 60.8232H133.904L131.713 70.3357L132.769 70.3356ZM134.864 70.3356C135.602 67.1685 136.34 63.9901 137.077 60.823H143.888C147.964 60.823 150.813 62.9344 148.94 67.5545C148.463 68.701 147.827 69.6204 147.101 70.3356H148.134C146.352 72.0497 143.888 72.6287 141.05 72.6287L139.87 77.7255H134.217L135.92 70.3357L134.864 70.3356ZM141.754 65.0342C141.516 66.1466 141.243 67.2818 140.994 68.4396C143.82 68.2921 144.876 65.0342 141.754 65.0342ZM152.056 70.3356H151.011L153.191 60.823H158.889L156.687 70.3356H157.743L156.994 73.4345H163.294L162.317 77.7254H150.341L152.056 70.3356ZM165.797 70.381H164.639L166.864 60.8004H179.021L178.045 65.1026H171.563L171.223 66.5556H177.182L176.308 70.381H177.466L177.364 70.8351H171.393L170.791 73.4914H177.25L176.274 77.7823H164.093L165.797 70.381ZM203.802 70.0178L203.245 70.7329L201.633 77.7823H195.912L197.49 70.9146C197.399 70.6308 197.297 70.3243 197.195 70.0179H196.173C195.118 66.953 193.869 63.7859 192.972 60.7437H199.397L200.737 65.046C201.781 63.6156 202.859 62.174 203.904 60.7437H210.181L202.78 70.0179L203.802 70.0178ZM211.061 70.381H209.903L212.128 60.8004H224.285L223.309 65.1026H216.827L216.487 66.5556H222.446L221.572 70.381H222.73L222.628 70.8351H216.657L216.056 73.4914H222.514L221.538 77.7823H209.358L211.061 70.381ZM235.665 70.0178L233.94 77.7822H228.185L229.955 70.0178H228.922L230.069 65.0459H225.528L226.527 60.7437H241.262L240.297 65.0459H235.767L234.655 70.0178H235.665ZM269.039 69.4161C268.948 69.7794 268.846 70.1426 268.71 70.5172H269.947C268.506 75.0238 264.839 78.2931 259.81 78.2931C254.623 78.2931 252.602 75.0238 253.26 70.5172H252.057C252.102 70.1426 252.159 69.7794 252.239 69.4161C253.442 64.2285 257.199 60.5165 262.659 60.5165C268.006 60.5165 270.208 64.2626 269.039 69.4161ZM264.055 70.5173H262.829C262.942 70.1427 263.056 69.7794 263.135 69.3935C264.577 63.1615 259.548 63.3431 258.14 69.4162C258.061 69.8135 258.004 70.1767 257.947 70.5173H259.173C258.583 75.2622 262.454 75.16 264.055 70.5173ZM287.547 70.0178L287.252 71.4367C286.219 75.9774 282.938 78.0888 278.409 78.0888C273.845 78.0888 271.564 75.9093 272.574 71.4481L272.903 70.0178H271.882L273.982 60.7437H279.737L277.625 70.0178H278.647L278.352 71.2097C278.125 72.22 277.864 73.8092 279.385 73.8092C280.793 73.8092 281.303 72.3676 281.576 71.2097L281.848 70.0178H280.793L282.904 60.7437H288.659L286.548 70.0178H287.547ZM300.448 70.0178L298.723 77.7822H292.967L294.738 70.0178H293.705L294.852 65.0459H290.311L291.31 60.7437H306.045L305.08 65.0459H300.55L299.438 70.0178H300.448ZM320.523 70.0178C321.182 72.4016 319.206 75.2168 317.379 76.4541C313.792 78.8039 309.058 78.4292 305.391 76.5449L306.458 71.8227H308.218C308.445 74.2632 313.905 75.2736 314.461 72.867C314.733 71.6751 310.454 71.3459 309.024 70.2221C308.944 70.154 308.853 70.0859 308.785 70.0178H307.741C306.606 68.9507 306.504 67.5318 306.833 66.0561C308.218 60.0057 316.436 59.4041 321.181 61.7993L320.126 66.3967H318.355C318.468 64.6712 313.247 63.4907 312.759 65.568C312.429 67.1799 317.719 66.7032 319.183 69.2572C319.308 69.4843 319.41 69.7567 319.479 70.0178L320.523 70.0178ZM332.766 70.0178L331.04 77.7822H325.285L327.056 70.0178H326.023L327.169 65.0459H322.629L323.628 60.7437H338.362L337.397 65.0459H332.868L331.756 70.0178H332.766ZM338.572 70.3356H337.267L342.602 60.8117H348.266L349.186 70.3356H350.457L351.172 77.7254H345.326L345.088 74.5357H341.853C341.285 75.5914 340.751 76.6584 340.184 77.7254H334.44L338.572 70.3356ZM344.94 70.574V70.3356H343.703L343.725 66.5669L342.204 70.3356H343.464L343.374 70.574H344.94ZM369.227 70.3356L367.535 77.7254H362.257L360.009 70.3356H359.748L358.034 77.7254H352.688L354.402 70.3356H353.369L355.56 60.823H361.792L363.63 66.7939L365.027 60.823H370.396L368.194 70.3356H369.227ZM386.76 70.3356H388.031C386.794 73.9907 383.638 76.8627 379.801 77.5324C376.975 77.9297 373.785 77.7368 370.913 77.7368L372.616 70.3356H371.356L373.546 60.8004C375.817 60.8004 381.561 60.4485 383.831 61.4133C386.975 62.7641 387.759 66.2037 387.032 69.2685C386.975 69.6318 386.884 69.9951 386.76 70.3356ZM378.314 64.9888L377.088 70.3354H378.348L377.61 73.5138C380.073 73.5138 381.447 72.583 382.207 70.3354H380.947C381.072 70.0289 381.163 69.6656 381.265 69.2343C381.969 66.2942 381.106 64.9888 378.314 64.9888ZM396.538 70.381L394.836 77.7822H389.092L390.795 70.381H389.637L391.862 60.8004H397.594L395.392 70.381H396.538ZM415.32 70.3356L413.628 77.7254H408.35L406.102 70.3356H405.841L404.127 77.7254H398.78L400.494 70.3356H399.462L401.652 60.823H407.884L409.723 66.7939L411.12 60.823H416.489L414.287 70.3356H415.32ZM418.004 70.5173H416.801C417.482 66.5897 420.547 62.4237 424.179 61.1636C427.914 59.8583 431.001 60.4939 434.271 62.2647L433.181 66.9529H431.387C431.126 66.3172 431.297 65.0685 428.663 64.8415C424.917 64.5123 422.454 67.7929 422.011 70.5172H423.214C422.987 71.9362 423.294 73.2189 424.259 73.741C424.894 74.0816 425.814 74.2405 427.176 74.0816H427.199L427.619 72.2427H424.917L425.314 70.5172H424.088L424.679 67.9745H433.011L432.432 70.5172H433.646L432.205 76.7719C431.626 77.0103 431.024 77.2033 430.422 77.4076C427.721 78.2363 424.259 78.7925 421.568 77.7141C418.379 76.4655 417.482 73.5595 418.004 70.5173Z"
    fill="#0F172A"
  />
</svg>