<svg xmlns="http://www.w3.org/2000/svg" version="1.1" xmlns:xlink="http://www.w3.org/1999/xlink" xmlns:svgjs="http://svgjs.dev/svgjs" width="1000" height="1000"><g clip-path="url(#SvgjsClipPath1019)"><rect width="1000" height="1000" fill="#ffffff"></rect><g transform="matrix(6.481481481481482,0,0,6.481481481481482,150,150)"><svg xmlns="http://www.w3.org/2000/svg" version="1.1" xmlns:xlink="http://www.w3.org/1999/xlink" xmlns:svgjs="http://svgjs.dev/svgjs" width="108" height="108"><svg width="108" height="108" viewBox="0 0 108 108" fill="none" xmlns="http://www.w3.org/2000/svg">
<path d="M33.4459 74.8078C33.4459 63.3198 38.1752 52.9208 45.7795 45.4342C41.6817 43.5532 37.1397 42.4776 32.3315 42.4776C14.4754 42.4776 0 56.953 0 74.8078C0 92.6639 14.4754 107.139 32.3315 107.139C37.1397 107.139 41.6803 106.064 45.7795 104.183C38.1752 96.6962 33.4459 86.2971 33.4459 74.8078Z" fill="#0F172A"></path>
<path d="M74.6955 73.6934C63.2075 73.6934 52.8085 68.9641 45.322 61.3558C43.441 65.4576 42.3654 69.9996 42.3654 74.8078C42.3654 92.6639 56.8408 107.139 74.6955 107.139C92.5517 107.139 107.027 92.6639 107.027 74.8078C107.027 69.9996 105.951 65.459 104.07 61.3558C96.5839 68.9641 86.1849 73.6934 74.6955 73.6934Z" fill="#0F172A"></path>
<path d="M74.6955 0.112305C69.8873 0.112305 65.3467 1.18793 61.2435 3.06893C68.8518 10.5555 73.5811 20.9545 73.5811 32.4438C73.5811 43.9318 68.8518 54.3309 61.2435 61.8174C65.3453 63.6984 69.8873 64.774 74.6955 64.774C92.5516 64.774 107.027 50.2986 107.027 32.4438C107.027 14.5877 92.5516 0.112305 74.6955 0.112305Z" fill="#0F172A"></path>
<path d="M32.3315 33.5583C43.8195 33.5583 54.2186 38.2875 61.7051 45.8918C63.5861 41.794 64.6617 37.252 64.6617 32.4438C64.6617 14.5877 50.1863 0.112305 32.3315 0.112305C14.4754 0.112305 0 14.5877 0 32.4438C0 37.252 1.07562 41.7926 2.95662 45.8918C10.4432 38.2875 20.8422 33.5583 32.3315 33.5583Z" fill="#0F172A"></path>
</svg></svg></g></g><defs><clipPath id="SvgjsClipPath1019"><rect width="1000" height="1000" x="0" y="0" rx="350" ry="350"></rect></clipPath></defs></svg>